<?xml version="1.0" encoding="UTF-8"?>
<!-- Created with Inkscape (http://www.inkscape.org/) -->
<svg id="svg1" width="24" height="24" version="1.1" viewBox="0 0 24 24" xml:space="preserve" xmlns="http://www.w3.org/2000/svg"><defs id="defs1"><clipPath id="clipPath43-1"><path id="path43-5" transform="translate(-382.34 -189.12)" d="m0 324h524v-324h-524z"/></clipPath><clipPath id="clipPath45-5"><path id="path45-4" transform="translate(-403.1 -197.95)" d="m0 324h524v-324h-524z"/></clipPath></defs><g id="layer4" transform="matrix(1.2784 0 0 1.2784 -632.36 -160.23)"><path id="path42" transform="matrix(.42667 0 0 -.42667 499.49 142.77)" d="m10.653 34.071s0 3-2.994 3-2.994-3-2.994-3v0.9375h-2.994c-2.994 0-2.994-2-2.994-2l-0.012094-15.13s-4.672 8.844-8.196 4.833c-2.407-2.74 1-5.756 4.782-12.045 3.679-6.118 4.7492-10.666 4.7492-10.666s2.9828-2.1221 8.7018-2.1221c5.691 0 8.766 2.107 8.766 2.107s0.63274 3.3481 3.5189 8.343c2.3009 3.9821 2.656 17.057 1.033 18.68-2 2-5.3549 2-5.3549 2s-1.9e-5 4.0106-3 4l-3.0121-0.01062z" clip-path="url(#clipPath43-1)" fill="#fff" fill-rule="evenodd"/><path id="path44" transform="matrix(.42667 0 0 -.42667 508.35 139.01)" d="m-15.104 25.357c7e-3 0.464 0.17364 2.0006 2.0006 2.0006 1.826 0 1.9915-1.5376 1.9995-2.0086l0.0022-14.299c0.22885-0.50233 0.44832-1.0003 1.0003-1.0003 0.553 0 1.0622 0.44831 1.0622 1.0003v12.76h1.9376c1.959 0 1.9985-2.8808 1.9995-2.9998l0.00115-2.0866v-8.674c0-0.552 0.44732-1.0003 1.0003-1.0003 0.552 0 0.99917 0.44731 0.99917 1.0003v8.6029c1.194-0.131 2.8516-0.26238 3.6472-1.6385 0.74753-1.293 1.1201-13.008-1.179-16.989-2.4251-4.2019-3.0756-7.2188-3.4696-8.1858-0.8-0.449-3.5542-1.7898-7.9601-1.7898-4.322 0-6.9945 1.2854-7.8375 1.7634-0.354 1.275-1.6304 5.3415-4.7564 10.541-0.94 1.562-1.8545 2.9203-2.6595 4.1193-2.673 3.975-3.4357 5.3761-2.2287 6.7501 0.617 0.703 1.1272 0.73138 1.4552 0.69438 1.771-0.208 4.0709-3.3829 5.1059-5.3339 0 0 0.11907-0.14923 0.57406-0.96823 0.29016-0.50103 1.3088-0.5649 1.3085-0.5649l-0.0011 6.3365-0.0012 3.1938v6.458c0.01 0.143 0.05354 1.6839 1.9995 1.6839 1.9459 0 2.0006-1.7247 2.0006-1.7247v-10.948c0-0.552 0.44732-0.99917 1.0003-0.99917 0.552 0 0.99917 0.44717 0.99917 0.99917zm6.0008-2.1e-5c0 1.608-1.1545 4.0088-4.0001 4.0001-2.6686-0.0081-4.0002-2.0249-4.0002-4.0001 0 0 1.4339 1.475 0.3454 0.7587-0.51176 0.62512-2.346 0.60598-2.346 0.60598-2.5713 0-4.0001-1.6823-4.0001-3.5929l0.0023-10.703c-1.224 1.587-2.9219 3.2605-4.7529 3.4765-0.826 0.097-2.0503-0.06011-3.1923-1.3601-2.326-2.647-0.48261-5.3902 2.0694-9.1861 0.793-1.179 1.6926-2.5143 2.6056-4.0333 3.543-5.891 4.6226-10.337 4.6326-10.381l0.08823-0.36667 0.30479-0.21885c0.133-0.094 3.3136-2.3066 9.2836-2.3066 5.932 0 9.1957 2.1885 9.3317 2.2825l0.25667 0.17646 0.11229 0.29104c0.011 0.033 0.64398 3.3444 3.449 8.1984 2.455 4.246 2.1918 17.708 0.87542 19.429-1.3163 1.7203-3.7178 2.1157-5.1368 2.2447 0.02446 2.6204-1.279 5.104-3.9268 5.1391l-1.958 0.02593z" clip-path="url(#clipPath45-5)"/></g></svg>
