<?xml version="1.0" encoding="UTF-8" standalone="no"?>
<!-- Created with Inkscape (http://www.inkscape.org/) -->

<svg
   version="1.1"
   id="svg1"
   width="24"
   height="24"
   viewBox="0 0 24 24"
   sodipodi:docname="forbidden.svg"
   inkscape:version="1.4.4 (dcaf3e7d9e, 2026-05-05)"
   xmlns:inkscape="http://www.inkscape.org/namespaces/inkscape"
   xmlns:sodipodi="http://sodipodi.sourceforge.net/DTD/sodipodi-0.dtd"
   xmlns="http://www.w3.org/2000/svg"
   xmlns:svg="http://www.w3.org/2000/svg">
  <defs
     id="defs1" />
  <sodipodi:namedview
     id="namedview1"
     pagecolor="#646464"
     bordercolor="#000000"
     borderopacity="0.25"
     inkscape:showpageshadow="2"
     inkscape:pageopacity="0.0"
     inkscape:pagecheckerboard="0"
     inkscape:deskcolor="#d1d1d1"
     inkscape:zoom="45.254834"
     inkscape:cx="10.661844"
     inkscape:cy="10.485068"
     inkscape:window-width="2560"
     inkscape:window-height="1412"
     inkscape:window-x="0"
     inkscape:window-y="0"
     inkscape:window-maximized="1"
     inkscape:current-layer="svg1"
     showguides="true">
    <inkscape:page
       x="0"
       y="0"
       inkscape:label="1"
       id="page1"
       width="24"
       height="24"
       margin="112.708 146.66667 44.262665 157.33333"
       bleed="0"
       inkscape:export-filename="../hyprcursor_themes/black/hyprcursors/forbidden/forbidden.svg"
       inkscape:export-xdpi="96"
       inkscape:export-ydpi="96" />
  </sodipodi:namedview>
  <path
     id="5df6148db730b175.mb.p.smi"
     style="display:inline;fill:#db0000;fill-rule:evenodd;stroke:#ffffff;stroke-width:1;stroke-dasharray:none"
     d="M 6.8078796,4.8646389 4.8613668,6.8114647 c -0.4847482,0.4847238 -0.479906,1.280714 0,1.7604751 0.8574492,0.8571926 3.0171893,3.0170522 3.4296979,3.4295672 l -3.4296979,3.428672 c -0.488066,0.487934 -0.4772156,1.284181 0,1.761372 l 1.9465128,1.946825 c 0.4850305,0.485008 1.2816849,0.480072 1.7618995,0 l 3.4305939,-3.429567 3.429699,3.429567 c 0.482327,0.482186 1.277498,0.484258 1.761898,0 l 1.946512,-1.946825 c 0.483576,-0.483431 0.482274,-1.279219 0,-1.761372 l -3.429698,-3.428672 c 0.36953,-0.36949 2.286434,-2.2862769 3.429698,-3.4295672 0.497796,-0.4976449 0.466235,-1.2942645 0,-1.7604751 L 17.19197,4.8646389 c -0.493672,-0.4935245 -1.290184,-0.4715739 -1.761898,0 L 12.000373,8.29331 8.5697791,4.8646389 c -0.4846226,-0.4844775 -1.2762138,-0.4855405 -1.7618995,0 z"
     sodipodi:nodetypes="ccsccccscccccccccsccc" />
</svg>
