<?xml version="1.0" encoding="UTF-8" standalone="no"?>
<!-- Created with Inkscape (http://www.inkscape.org/) -->

<svg
   version="1.1"
   id="svg1"
   width="24"
   height="24"
   viewBox="0 0 24 24"
   sodipodi:docname="posys-cursor-zoom-out.svg"
   inkscape:version="1.4.4 (dcaf3e7d9e, 2026-05-05)"
   xml:space="preserve"
   xmlns:inkscape="http://www.inkscape.org/namespaces/inkscape"
   xmlns:sodipodi="http://sodipodi.sourceforge.net/DTD/sodipodi-0.dtd"
   xmlns="http://www.w3.org/2000/svg"
   xmlns:svg="http://www.w3.org/2000/svg"><defs
     id="defs1"><clipPath
       clipPathUnits="userSpaceOnUse"
       id="clipPath67-7-6"><path
         d="M 0,324 H 524 V 0 H 0 Z"
         transform="translate(-314.67091,-101.7031)"
         id="path67-5-2" /></clipPath></defs><sodipodi:namedview
     id="namedview1"
     pagecolor="#646464"
     bordercolor="#000000"
     borderopacity="0.25"
     inkscape:showpageshadow="2"
     inkscape:pageopacity="0.0"
     inkscape:pagecheckerboard="0"
     inkscape:deskcolor="#d1d1d1"
     inkscape:zoom="32"
     inkscape:cx="10.734375"
     inkscape:cy="10.484375"
     inkscape:window-width="2560"
     inkscape:window-height="1412"
     inkscape:window-x="0"
     inkscape:window-y="0"
     inkscape:window-maximized="1"
     inkscape:current-layer="layer1"
     showgrid="false"
     showguides="true"><inkscape:page
       x="0"
       y="0"
       inkscape:label="1"
       id="page1"
       width="24"
       height="24"
       margin="112.708 146.66667 44.262665 157.33333"
       bleed="0" /></sodipodi:namedview><g
     inkscape:groupmode="layer"
     id="layer1"
     inkscape:label="Glass"><path
       d="m 14.812691,11.704624 -2.959951,3.0808 8.239487,8.266754 c 1.604179,1.530277 4.535608,-1.554015 2.959951,-3.0808 z"
       style="display:inline;fill:#ffffff;fill-opacity:1;fill-rule:evenodd;stroke:#000000;stroke-width:1;stroke-linecap:butt;stroke-linejoin:miter;stroke-miterlimit:10;stroke-dasharray:none;stroke-opacity:1"
       id="path1"
       sodipodi:nodetypes="ccccc" /><ellipse
       style="fill:#ffffff;fill-opacity:1;stroke:#000000;stroke-width:1.02051;stroke-dasharray:none;stroke-opacity:1"
       id="circle2"
       cx="8.0000029"
       cy="7.9999981"
       inkscape:label="circle2"
       rx="7.4897428"
       ry="7.4897404" /><path
       id="path66-1"
       clip-path="url(#clipPath67-7-6)"
       style="display:inline;fill:#000000;fill-opacity:1;fill-rule:evenodd;stroke-width:3.71206"
       inkscape:label="plus"
       transform="matrix(0.18450313,0.18450313,0.18450313,-0.18450313,6.7774531,12.49741)"
       d="m -18.947266,1.1835937 -4.242187,4.2421875 c -0.37231,0.3724028 -0.362897,0.992572 0,1.3554688 1.858823,1.8588221 23.033203,23.035156 23.033203,23.035156 0.37122567,0.371226 0.98033854,0.37513 1.3554687,0 1.4147858,-1.413639 2.8293736,-2.830041 4.2421875,-4.244187 0.3714776,-0.371478 0.3690715,-0.986379 0,-1.355469 0,0 -20.5543682,-20.556818 -23.0332502,-23.0331563 -0.37108,-0.37108091 -0.98027,-0.37514996 -1.355422,0 z"
       sodipodi:nodetypes="ccssscccc" /></g></svg>
