<?xml version="1.0" encoding="UTF-8" standalone="no"?>
<!-- Created with Inkscape (http://www.inkscape.org/) -->

<svg
   version="1.1"
   id="svg1"
   width="24"
   height="24"
   viewBox="0 0 24 24"
   sodipodi:docname="posys-cursor-cell.svg"
   inkscape:version="1.4.4 (dcaf3e7d9e, 2026-05-05)"
   xml:space="preserve"
   xmlns:inkscape="http://www.inkscape.org/namespaces/inkscape"
   xmlns:sodipodi="http://sodipodi.sourceforge.net/DTD/sodipodi-0.dtd"
   xmlns="http://www.w3.org/2000/svg"
   xmlns:svg="http://www.w3.org/2000/svg"><defs
     id="defs1"><clipPath
       clipPathUnits="userSpaceOnUse"
       id="clipPath67-7-6"><path
         d="M 0,324 H 524 V 0 H 0 Z"
         transform="translate(-314.67091,-101.7031)"
         id="path67-5-2" /></clipPath></defs><sodipodi:namedview
     id="namedview1"
     pagecolor="#646464"
     bordercolor="#000000"
     borderopacity="0.25"
     inkscape:showpageshadow="2"
     inkscape:pageopacity="0.0"
     inkscape:pagecheckerboard="0"
     inkscape:deskcolor="#d1d1d1"
     inkscape:zoom="32"
     inkscape:cx="8.421875"
     inkscape:cy="10.765625"
     inkscape:window-width="2560"
     inkscape:window-height="1412"
     inkscape:window-x="0"
     inkscape:window-y="0"
     inkscape:window-maximized="1"
     inkscape:current-layer="layer1"
     showgrid="false"
     showguides="true"><inkscape:page
       x="0"
       y="0"
       inkscape:label="1"
       id="page1"
       width="24"
       height="24"
       margin="112.708 146.66667 44.262665 157.33333"
       bleed="0" /></sodipodi:namedview><g
     inkscape:groupmode="layer"
     id="layer1"
     inkscape:label="Cell"
     style="fill:#ffffff;fill-opacity:1;stroke:#000000;stroke-opacity:1"
     transform="matrix(2.4074947,0,0,2.4074947,-7.2603104,-7.2603094)"><path
       id="path66-1"
       clip-path="url(#clipPath67-7-6)"
       style="display:inline;fill:#ffffff;fill-opacity:1;fill-rule:evenodd;stroke:#000000;stroke-width:3.13561;stroke-dasharray:none;stroke-opacity:1"
       inkscape:label="plus"
       d="m -21.21719,23.601622 c -1.543373,-1.543372 -1.588923,-3.713243 0,-5.302161 0.697724,-0.698441 2.517617,-2.517642 4.771944,-4.771945 -2.363168,-2.363405 -4.227371,-4.2273708 -4.771944,-4.7719444 -1.630477,-1.6304771 -1.592279,-3.709881 0,-5.302161 l 4.241728,-4.24172885 c 1.543372,-1.54337225 3.713243,-1.58892265 5.302161,0 0.698413,0.69769597 2.5177721,2.51774645 4.7719452,4.77194495 2.7443596,-2.7439178 4.771945,-4.77194495 4.771945,-4.77194495 1.54074695,-1.54066935 3.81764,-1.48451845 5.302161,0 1.414146,1.4128139 2.8275168,2.82751605 4.2417288,4.24172885 1.5764,1.5764012 1.589067,3.7130958 0,5.302161 0,0 -2.0298475,2.0301494 -4.7719449,4.7719444 2.7440522,2.744495 4.7719449,4.771945 4.7719449,4.771945 1.5406694,1.540747 1.4824473,3.815569 -0.00207,5.30009 -1.4128139,1.414146 -2.8254448,2.829588 -4.2396576,4.2438 -1.5764012,1.5764 -3.71309586,1.589067 -5.302161,0 0,0 -2.0300083,-2.029706 -4.771945,-4.771945 -2.3635313,2.363295 -4.2273514,4.227351 -4.7719454,4.771945 -1.630477,1.630477 -3.709881,1.592279 -5.302161,0 z"
       transform="matrix(0.18733439,0.18733435,0.18733439,-0.18733435,6.7588387,11.827174)" /></g></svg>
