<?xml version="1.0" encoding="UTF-8" standalone="no"?>
<!-- Created with Inkscape (http://www.inkscape.org/) -->

<svg
   version="1.1"
   id="svg1"
   width="24"
   height="24"
   viewBox="0 0 24 24"
   sodipodi:docname="resize-NS.svg"
   inkscape:version="1.4.4 (dcaf3e7d9e, 2026-05-05)"
   xml:space="preserve"
   xmlns:inkscape="http://www.inkscape.org/namespaces/inkscape"
   xmlns:sodipodi="http://sodipodi.sourceforge.net/DTD/sodipodi-0.dtd"
   xmlns="http://www.w3.org/2000/svg"
   xmlns:svg="http://www.w3.org/2000/svg"><defs
     id="defs1" /><sodipodi:namedview
     id="namedview1"
     pagecolor="#646464"
     bordercolor="#000000"
     borderopacity="0.25"
     inkscape:showpageshadow="2"
     inkscape:pageopacity="0.0"
     inkscape:pagecheckerboard="0"
     inkscape:deskcolor="#d1d1d1"
     inkscape:zoom="22.627417"
     inkscape:cx="11.623068"
     inkscape:cy="8.3306018"
     inkscape:window-width="2560"
     inkscape:window-height="1364"
     inkscape:window-x="0"
     inkscape:window-y="0"
     inkscape:window-maximized="1"
     inkscape:current-layer="svg1"
     showguides="true"><inkscape:page
       x="0"
       y="0"
       inkscape:label="1"
       id="page1"
       width="24"
       height="24"
       margin="112.708 146.66667 44.262665 157.33333"
       bleed="0" /></sodipodi:namedview><path
     id="d66e5a9b70ad818d.p.s"
     style="opacity:1;fill:#ffffff;fill-opacity:1;stroke:#000000;stroke-width:1;stroke-dasharray:none;stroke-opacity:1;paint-order:normal"
     d="M 15.939177,6.0138801 C 14.626079,4.2848118 13.313395,2.5554306 12,0.82658828 10.433556,2.8888871 8.8673913,4.9513997 7.3016046,7.014199 c 0.9522216,0 1.9044427,-5e-7 2.8566644,-2e-7 0,3.3203942 -1e-6,6.6407892 -1e-6,9.9611822 -0.951815,0 -1.9036305,0 -2.8554445,0 1.5656062,2.065874 3.1311105,4.131826 4.6971765,6.197352 1.566069,-2.065524 3.131569,-4.131478 4.697177,-6.197352 -0.951814,0 -1.903629,0 -2.855445,0 0,-3.320393 10e-7,-6.640788 10e-7,-9.9611822 0.952222,3e-7 1.904442,1e-7 2.856663,1e-7 C 16.445323,6.6807595 16.19225,6.3473193 15.939177,6.0138801 Z" /></svg>
