<?xml version="1.0" encoding="UTF-8" standalone="no"?>
<!-- Created with Inkscape (http://www.inkscape.org/) -->

<svg
   version="1.1"
   id="svg1"
   width="24"
   height="24"
   viewBox="0 0 24 24"
   sodipodi:docname="resize-EW.svg"
   inkscape:version="1.4.4 (dcaf3e7d9e, 2026-05-05)"
   xml:space="preserve"
   xmlns:inkscape="http://www.inkscape.org/namespaces/inkscape"
   xmlns:sodipodi="http://sodipodi.sourceforge.net/DTD/sodipodi-0.dtd"
   xmlns="http://www.w3.org/2000/svg"
   xmlns:svg="http://www.w3.org/2000/svg"><defs
     id="defs1" /><sodipodi:namedview
     id="namedview1"
     pagecolor="#646464"
     bordercolor="#000000"
     borderopacity="0.25"
     inkscape:showpageshadow="2"
     inkscape:pageopacity="0.0"
     inkscape:pagecheckerboard="0"
     inkscape:deskcolor="#d1d1d1"
     inkscape:zoom="22.627417"
     inkscape:cx="7.2257474"
     inkscape:cy="10.893864"
     inkscape:window-width="2560"
     inkscape:window-height="1364"
     inkscape:window-x="0"
     inkscape:window-y="0"
     inkscape:window-maximized="1"
     inkscape:current-layer="svg1"
     showguides="true"><inkscape:page
       x="0"
       y="0"
       inkscape:label="1"
       id="page1"
       width="24"
       height="24"
       margin="112.708 146.66667 44.262665 157.33333"
       bleed="0" /><sodipodi:guide
       position="14.242188,62.996094"
       orientation="0,-1"
       id="guide1"
       inkscape:locked="false" /></sodipodi:namedview><path
     id="16bd25ea2b9bb206.p.s"
     style="opacity:1;fill:#ffffff;fill-opacity:1;stroke:#000000;stroke-width:0.999979;stroke-dasharray:none;stroke-opacity:1;paint-order:normal"
     d="M 6.0137524,8.0609075 C 4.2847209,9.3739775 2.5553765,10.686634 0.82657081,12 2.888826,13.566412 4.9512948,15.132543 7.0140502,16.698296 c 0,-0.952201 0,-1.904401 0,-2.856603 3.3203238,0 6.6406478,0 9.9609708,0 0,0.951796 0,1.90359 0,2.855385 C 19.040851,15.131505 21.10676,13.566034 23.172242,12 21.106762,10.433964 19.04085,8.8684975 16.975021,7.3029225 c 0,0.951794 0,1.903589 0,2.8553845 -3.320323,0 -6.640647,0 -9.9609708,0 0,-0.9522015 0,-1.9044015 0,-2.8566035 -0.3334324,0.253068 -0.6668654,0.506136 -1.0002978,0.759204 z" /></svg>
